<mxfile host="app.diagrams.net" modified="2021-01-01T16:56:24.982Z" agent="5.0 (Windows NT 10.0; Win64; x64) AppleWebKit/537.36 (KHTML, like Gecko) Chrome/87.0.4270.0 Safari/537.36" etag="ESi9bgu1TYHLKBV8xIXn" version="14.1.1" type="github">
  <diagram id="C5RBs43oDa-KdzZeNtuy" name="Page-1">
    <mxGraphModel dx="2031" dy="1089" grid="1" gridSize="10" guides="1" tooltips="1" connect="1" arrows="1" fold="1" page="1" pageScale="1" pageWidth="827" pageHeight="1169" math="0" shadow="0">
      <root>
        <mxCell id="WIyWlLk6GJQsqaUBKTNV-0" />
        <mxCell id="WIyWlLk6GJQsqaUBKTNV-1" parent="WIyWlLk6GJQsqaUBKTNV-0" />
        <mxCell id="CMh_sDjiI0UWJ-WJZnCU-2" value="" style="edgeStyle=orthogonalEdgeStyle;rounded=0;orthogonalLoop=1;jettySize=auto;html=1;" edge="1" parent="WIyWlLk6GJQsqaUBKTNV-1" source="CMh_sDjiI0UWJ-WJZnCU-0" target="CMh_sDjiI0UWJ-WJZnCU-1">
          <mxGeometry relative="1" as="geometry" />
        </mxCell>
        <mxCell id="CMh_sDjiI0UWJ-WJZnCU-0" value="开始" style="rounded=1;whiteSpace=wrap;html=1;" vertex="1" parent="WIyWlLk6GJQsqaUBKTNV-1">
          <mxGeometry x="354" y="10" width="120" height="40" as="geometry" />
        </mxCell>
        <mxCell id="CMh_sDjiI0UWJ-WJZnCU-4" value="" style="edgeStyle=orthogonalEdgeStyle;rounded=0;orthogonalLoop=1;jettySize=auto;html=1;" edge="1" parent="WIyWlLk6GJQsqaUBKTNV-1" source="CMh_sDjiI0UWJ-WJZnCU-1" target="CMh_sDjiI0UWJ-WJZnCU-3">
          <mxGeometry relative="1" as="geometry" />
        </mxCell>
        <mxCell id="CMh_sDjiI0UWJ-WJZnCU-1" value="i=0" style="rounded=1;whiteSpace=wrap;html=1;" vertex="1" parent="WIyWlLk6GJQsqaUBKTNV-1">
          <mxGeometry x="354" y="70" width="120" height="40" as="geometry" />
        </mxCell>
        <mxCell id="CMh_sDjiI0UWJ-WJZnCU-6" value="" style="edgeStyle=orthogonalEdgeStyle;rounded=0;orthogonalLoop=1;jettySize=auto;html=1;" edge="1" parent="WIyWlLk6GJQsqaUBKTNV-1" source="CMh_sDjiI0UWJ-WJZnCU-3" target="CMh_sDjiI0UWJ-WJZnCU-5">
          <mxGeometry relative="1" as="geometry" />
        </mxCell>
        <mxCell id="CMh_sDjiI0UWJ-WJZnCU-3" value="i&amp;nbsp; &amp;lt; n-1" style="rhombus;whiteSpace=wrap;html=1;rounded=1;" vertex="1" parent="WIyWlLk6GJQsqaUBKTNV-1">
          <mxGeometry x="374" y="140" width="80" height="80" as="geometry" />
        </mxCell>
        <mxCell id="CMh_sDjiI0UWJ-WJZnCU-8" value="" style="edgeStyle=orthogonalEdgeStyle;rounded=0;orthogonalLoop=1;jettySize=auto;html=1;" edge="1" parent="WIyWlLk6GJQsqaUBKTNV-1" source="CMh_sDjiI0UWJ-WJZnCU-5" target="CMh_sDjiI0UWJ-WJZnCU-7">
          <mxGeometry relative="1" as="geometry" />
        </mxCell>
        <mxCell id="CMh_sDjiI0UWJ-WJZnCU-5" value="k=i" style="whiteSpace=wrap;html=1;rounded=1;" vertex="1" parent="WIyWlLk6GJQsqaUBKTNV-1">
          <mxGeometry x="354" y="240" width="120" height="40" as="geometry" />
        </mxCell>
        <mxCell id="CMh_sDjiI0UWJ-WJZnCU-10" value="" style="edgeStyle=orthogonalEdgeStyle;rounded=0;orthogonalLoop=1;jettySize=auto;html=1;" edge="1" parent="WIyWlLk6GJQsqaUBKTNV-1" source="CMh_sDjiI0UWJ-WJZnCU-7">
          <mxGeometry relative="1" as="geometry">
            <mxPoint x="414" y="380" as="targetPoint" />
          </mxGeometry>
        </mxCell>
        <mxCell id="CMh_sDjiI0UWJ-WJZnCU-7" value="j = i +1" style="whiteSpace=wrap;html=1;rounded=1;" vertex="1" parent="WIyWlLk6GJQsqaUBKTNV-1">
          <mxGeometry x="354" y="310" width="120" height="40" as="geometry" />
        </mxCell>
        <mxCell id="CMh_sDjiI0UWJ-WJZnCU-14" value="" style="edgeStyle=orthogonalEdgeStyle;rounded=0;orthogonalLoop=1;jettySize=auto;html=1;" edge="1" parent="WIyWlLk6GJQsqaUBKTNV-1" target="CMh_sDjiI0UWJ-WJZnCU-13">
          <mxGeometry relative="1" as="geometry">
            <mxPoint x="414" y="420" as="sourcePoint" />
          </mxGeometry>
        </mxCell>
        <mxCell id="CMh_sDjiI0UWJ-WJZnCU-16" value="" style="edgeStyle=orthogonalEdgeStyle;rounded=0;orthogonalLoop=1;jettySize=auto;html=1;" edge="1" parent="WIyWlLk6GJQsqaUBKTNV-1" source="CMh_sDjiI0UWJ-WJZnCU-13" target="CMh_sDjiI0UWJ-WJZnCU-15">
          <mxGeometry relative="1" as="geometry" />
        </mxCell>
        <mxCell id="CMh_sDjiI0UWJ-WJZnCU-13" value="stu[j].score&amp;gt;stu[k].score" style="rhombus;whiteSpace=wrap;html=1;rounded=1;" vertex="1" parent="WIyWlLk6GJQsqaUBKTNV-1">
          <mxGeometry x="336" y="450" width="156" height="80" as="geometry" />
        </mxCell>
        <mxCell id="CMh_sDjiI0UWJ-WJZnCU-15" value="k = j" style="whiteSpace=wrap;html=1;rounded=1;" vertex="1" parent="WIyWlLk6GJQsqaUBKTNV-1">
          <mxGeometry x="354" y="550" width="120" height="30" as="geometry" />
        </mxCell>
        <mxCell id="CMh_sDjiI0UWJ-WJZnCU-17" value="" style="endArrow=none;html=1;" edge="1" parent="WIyWlLk6GJQsqaUBKTNV-1">
          <mxGeometry width="50" height="50" relative="1" as="geometry">
            <mxPoint x="410" y="120" as="sourcePoint" />
            <mxPoint x="630" y="240" as="targetPoint" />
            <Array as="points">
              <mxPoint x="630" y="120" />
            </Array>
          </mxGeometry>
        </mxCell>
        <mxCell id="CMh_sDjiI0UWJ-WJZnCU-18" value="i++" style="rounded=0;whiteSpace=wrap;html=1;" vertex="1" parent="WIyWlLk6GJQsqaUBKTNV-1">
          <mxGeometry x="570" y="240" width="120" height="30" as="geometry" />
        </mxCell>
        <mxCell id="CMh_sDjiI0UWJ-WJZnCU-19" value="k!=i" style="rhombus;whiteSpace=wrap;html=1;" vertex="1" parent="WIyWlLk6GJQsqaUBKTNV-1">
          <mxGeometry x="374" y="620" width="80" height="80" as="geometry" />
        </mxCell>
        <mxCell id="CMh_sDjiI0UWJ-WJZnCU-20" value="" style="endArrow=classic;html=1;exitX=1;exitY=0.5;exitDx=0;exitDy=0;entryX=0.5;entryY=0;entryDx=0;entryDy=0;" edge="1" parent="WIyWlLk6GJQsqaUBKTNV-1" target="CMh_sDjiI0UWJ-WJZnCU-19">
          <mxGeometry width="50" height="50" relative="1" as="geometry">
            <mxPoint x="454" y="399.5" as="sourcePoint" />
            <mxPoint x="590" y="399.5" as="targetPoint" />
            <Array as="points">
              <mxPoint x="520" y="400" />
              <mxPoint x="520" y="600" />
              <mxPoint x="414" y="600" />
            </Array>
          </mxGeometry>
        </mxCell>
        <mxCell id="CMh_sDjiI0UWJ-WJZnCU-22" value="j &amp;lt; n" style="rhombus;whiteSpace=wrap;html=1;" vertex="1" parent="WIyWlLk6GJQsqaUBKTNV-1">
          <mxGeometry x="374" y="380" width="80" height="40" as="geometry" />
        </mxCell>
        <mxCell id="CMh_sDjiI0UWJ-WJZnCU-23" value="j++" style="rounded=0;whiteSpace=wrap;html=1;" vertex="1" parent="WIyWlLk6GJQsqaUBKTNV-1">
          <mxGeometry x="160" y="380" width="120" height="30" as="geometry" />
        </mxCell>
        <mxCell id="CMh_sDjiI0UWJ-WJZnCU-24" value="" style="endArrow=classic;html=1;exitX=0.5;exitY=1;exitDx=0;exitDy=0;entryX=0.575;entryY=1;entryDx=0;entryDy=0;entryPerimeter=0;" edge="1" parent="WIyWlLk6GJQsqaUBKTNV-1" source="CMh_sDjiI0UWJ-WJZnCU-15" target="CMh_sDjiI0UWJ-WJZnCU-23">
          <mxGeometry width="50" height="50" relative="1" as="geometry">
            <mxPoint x="210" y="470" as="sourcePoint" />
            <mxPoint x="260" y="420" as="targetPoint" />
            <Array as="points">
              <mxPoint x="414" y="600" />
              <mxPoint x="229" y="600" />
            </Array>
          </mxGeometry>
        </mxCell>
        <mxCell id="CMh_sDjiI0UWJ-WJZnCU-25" value="" style="endArrow=none;html=1;exitX=0.5;exitY=0;exitDx=0;exitDy=0;" edge="1" parent="WIyWlLk6GJQsqaUBKTNV-1" source="CMh_sDjiI0UWJ-WJZnCU-23">
          <mxGeometry width="50" height="50" relative="1" as="geometry">
            <mxPoint x="200" y="380" as="sourcePoint" />
            <mxPoint x="410" y="360" as="targetPoint" />
            <Array as="points">
              <mxPoint x="220" y="360" />
            </Array>
          </mxGeometry>
        </mxCell>
        <mxCell id="CMh_sDjiI0UWJ-WJZnCU-26" value="&lt;div&gt;&lt;span&gt;	&lt;/span&gt;temp=stu[k];&lt;/div&gt;&lt;div&gt;&lt;span&gt;		&lt;/span&gt;stu[k]=stu[i];&lt;/div&gt;&lt;div&gt;&lt;span&gt;		&lt;/span&gt;stu[i]=temp;&amp;nbsp;&lt;/div&gt;" style="whiteSpace=wrap;html=1;" vertex="1" parent="WIyWlLk6GJQsqaUBKTNV-1">
          <mxGeometry x="354" y="750" width="120" height="60" as="geometry" />
        </mxCell>
        <mxCell id="CMh_sDjiI0UWJ-WJZnCU-30" value="" style="endArrow=classic;html=1;exitX=0.5;exitY=1;exitDx=0;exitDy=0;entryX=0.5;entryY=0;entryDx=0;entryDy=0;" edge="1" parent="WIyWlLk6GJQsqaUBKTNV-1" source="CMh_sDjiI0UWJ-WJZnCU-19" target="CMh_sDjiI0UWJ-WJZnCU-26">
          <mxGeometry width="50" height="50" relative="1" as="geometry">
            <mxPoint x="400" y="750" as="sourcePoint" />
            <mxPoint x="450" y="700" as="targetPoint" />
          </mxGeometry>
        </mxCell>
        <mxCell id="CMh_sDjiI0UWJ-WJZnCU-31" value="yes" style="text;html=1;strokeColor=none;fillColor=none;align=center;verticalAlign=middle;whiteSpace=wrap;rounded=0;" vertex="1" parent="WIyWlLk6GJQsqaUBKTNV-1">
          <mxGeometry x="420" y="710" width="40" height="20" as="geometry" />
        </mxCell>
        <mxCell id="CMh_sDjiI0UWJ-WJZnCU-32" value="结束" style="rounded=1;whiteSpace=wrap;html=1;" vertex="1" parent="WIyWlLk6GJQsqaUBKTNV-1">
          <mxGeometry x="360" y="840" width="120" height="40" as="geometry" />
        </mxCell>
        <mxCell id="CMh_sDjiI0UWJ-WJZnCU-33" value="no" style="text;html=1;strokeColor=none;fillColor=none;align=center;verticalAlign=middle;whiteSpace=wrap;rounded=0;" vertex="1" parent="WIyWlLk6GJQsqaUBKTNV-1">
          <mxGeometry x="530" y="500" width="40" height="20" as="geometry" />
        </mxCell>
        <mxCell id="CMh_sDjiI0UWJ-WJZnCU-34" value="" style="endArrow=none;html=1;" edge="1" parent="WIyWlLk6GJQsqaUBKTNV-1" target="CMh_sDjiI0UWJ-WJZnCU-13">
          <mxGeometry width="50" height="50" relative="1" as="geometry">
            <mxPoint x="230" y="490" as="sourcePoint" />
            <mxPoint x="320" y="470" as="targetPoint" />
          </mxGeometry>
        </mxCell>
        <mxCell id="CMh_sDjiI0UWJ-WJZnCU-35" value="no" style="text;html=1;strokeColor=none;fillColor=none;align=center;verticalAlign=middle;whiteSpace=wrap;rounded=0;" vertex="1" parent="WIyWlLk6GJQsqaUBKTNV-1">
          <mxGeometry x="280" y="470" width="40" height="20" as="geometry" />
        </mxCell>
        <mxCell id="CMh_sDjiI0UWJ-WJZnCU-36" value="" style="endArrow=classic;html=1;exitX=0;exitY=0.5;exitDx=0;exitDy=0;entryX=0.5;entryY=0;entryDx=0;entryDy=0;" edge="1" parent="WIyWlLk6GJQsqaUBKTNV-1" source="CMh_sDjiI0UWJ-WJZnCU-3" target="CMh_sDjiI0UWJ-WJZnCU-32">
          <mxGeometry width="50" height="50" relative="1" as="geometry">
            <mxPoint x="30" y="310" as="sourcePoint" />
            <mxPoint x="60" y="820" as="targetPoint" />
            <Array as="points">
              <mxPoint x="60" y="180" />
              <mxPoint x="60" y="820" />
              <mxPoint x="420" y="820" />
            </Array>
          </mxGeometry>
        </mxCell>
        <mxCell id="CMh_sDjiI0UWJ-WJZnCU-37" value="no" style="text;html=1;strokeColor=none;fillColor=none;align=center;verticalAlign=middle;whiteSpace=wrap;rounded=0;" vertex="1" parent="WIyWlLk6GJQsqaUBKTNV-1">
          <mxGeometry x="70" y="440" width="40" height="20" as="geometry" />
        </mxCell>
        <mxCell id="CMh_sDjiI0UWJ-WJZnCU-38" value="" style="endArrow=classic;html=1;entryX=0.5;entryY=1;entryDx=0;entryDy=0;exitX=0.675;exitY=1.05;exitDx=0;exitDy=0;exitPerimeter=0;" edge="1" parent="WIyWlLk6GJQsqaUBKTNV-1" source="CMh_sDjiI0UWJ-WJZnCU-26" target="CMh_sDjiI0UWJ-WJZnCU-18">
          <mxGeometry width="50" height="50" relative="1" as="geometry">
            <mxPoint x="620" y="820" as="sourcePoint" />
            <mxPoint x="670" y="510" as="targetPoint" />
            <Array as="points">
              <mxPoint x="435" y="830" />
              <mxPoint x="630" y="830" />
            </Array>
          </mxGeometry>
        </mxCell>
        <mxCell id="CMh_sDjiI0UWJ-WJZnCU-39" value="" style="endArrow=none;html=1;" edge="1" parent="WIyWlLk6GJQsqaUBKTNV-1">
          <mxGeometry width="50" height="50" relative="1" as="geometry">
            <mxPoint x="454" y="660" as="sourcePoint" />
            <mxPoint x="630" y="660" as="targetPoint" />
          </mxGeometry>
        </mxCell>
        <mxCell id="CMh_sDjiI0UWJ-WJZnCU-40" value="no" style="text;html=1;strokeColor=none;fillColor=none;align=center;verticalAlign=middle;whiteSpace=wrap;rounded=0;" vertex="1" parent="WIyWlLk6GJQsqaUBKTNV-1">
          <mxGeometry x="650" y="490" width="40" height="20" as="geometry" />
        </mxCell>
      </root>
    </mxGraphModel>
  </diagram>
</mxfile>
